
<svg width="600" height="400" viewBox="0 0 600 400" fill="none" xmlns="http://www.w3.org/2000/svg">
  <!-- Background -->
  <rect width="600" height="400" fill="#E8F1F8" rx="10"/>
  
  <!-- Document/Resume -->
  <rect x="150" y="50" width="300" height="350" rx="5" fill="white" stroke="#0047AB" stroke-width="2"/>
  
  <!-- Document Content -->
  <rect x="175" y="80" width="250" height="20" rx="3" fill="#E0E0E0"/>
  <rect x="175" y="110" width="200" height="10" rx="3" fill="#E0E0E0"/>
  <rect x="175" y="130" width="180" height="10" rx="3" fill="#E0E0E0"/>
  
  <rect x="175" y="160" width="120" height="15" rx="3" fill="#0047AB" fill-opacity="0.7"/>
  
  <rect x="175" y="190" width="250" height="10" rx="3" fill="#E0E0E0"/>
  <rect x="175" y="210" width="250" height="10" rx="3" fill="#E0E0E0"/>
  <rect x="175" y="230" width="250" height="10" rx="3" fill="#E0E0E0"/>
  
  <rect x="175" y="260" width="120" height="15" rx="3" fill="#0047AB" fill-opacity="0.7"/>
  
  <rect x="175" y="290" width="250" height="10" rx="3" fill="#E0E0E0"/>
  <rect x="175" y="310" width="250" height="10" rx="3" fill="#E0E0E0"/>
  <rect x="175" y="330" width="250" height="10" rx="3" fill="#E0E0E0"/>
  
  <!-- Magnifying Glass -->
  <circle cx="400" cy="150" r="60" fill="#0047AB" fill-opacity="0.1" stroke="#0047AB" stroke-width="2"/>
  <circle cx="400" cy="150" r="40" fill="none" stroke="#0047AB" stroke-width="2"/>
  <line x1="445" y1="195" x2="475" y2="225" stroke="#0047AB" stroke-width="4" stroke-linecap="round"/>
  
  <!-- Check Marks -->
  <circle cx="480" cy="270" r="25" fill="#FF6B35"/>
  <path d="M470 270L478 278L492 264" stroke="white" stroke-width="3" stroke-linecap="round" stroke-linejoin="round"/>
  
  <circle cx="480" cy="330" r="25" fill="#FF6B35"/>
  <path d="M470 330L478 338L492 324" stroke="white" stroke-width="3" stroke-linecap="round" stroke-linejoin="round"/>
</svg>
